Coordinates
version=1
nRows=17
nColumns=38
inDegrees=no

Units are S.I. units (second, meters, Newtons, ...)
If the header above contains a line with 'inDegrees', this indicates whether rotational values are in degrees (yes) or radians (no).

endheader
time	pelvis_tilt	pelvis_list	pelvis_rotation	pelvis_tx	pelvis_ty	pelvis_tz	hip_flexion_r	hip_adduction_r	hip_rotation_r	knee_angle_r	ankle_angle_r	subtalar_angle_r	mtp_angle_r	hip_flexion_l	hip_adduction_l	hip_rotation_l	knee_angle_l	ankle_angle_l	subtalar_angle_l	mtp_angle_l	lumbar_extension	lumbar_bending	lumbar_rotation	arm_flex_r	arm_add_r	arm_rot_r	elbow_flex_r	pro_sup_r	wrist_flex_r	wrist_dev_r	arm_flex_l	arm_add_l	arm_rot_l	elbow_flex_l	pro_sup_l	wrist_flex_l	wrist_dev_l
40	-3.09549	1.38047	-1.50489	0.58656	1.33988	1.08785	-0.135882	-0.026078	-0.0710539	0.388768	-0.243285	0	0	-0.262484	-0.0331169	-0.144617	0.317453	-0.171676	0	0	-0.463306	0.0101061	0.140597	0.154588	-0.320478	0.18519	0.304572	1.5708	0	0	0.307452	-0.147778	0.270963	0.219409	1.5708	0	0
40.01	-3.10115	1.35877	-1.49901	0.58605	1.33901	1.08912	-0.161588	-0.0240115	-0.0764272	0.381693	-0.247244	0	0	-0.289112	-0.0350059	-0.146766	0.309471	-0.17342	0	0	-0.470691	0.0291612	0.109663	0.11314	-0.369524	0.293619	0.428923	1.5708	0	0	0.282716	-0.153329	0.249672	0.226698	1.5708	0	0
40.02	-3.10183	1.35897	-1.49803	0.585878	1.33924	1.08909	-0.161728	-0.0239868	-0.0773574	0.381378	-0.24763	0	0	-0.288957	-0.0351905	-0.146814	0.309618	-0.173587	0	0	-0.470127	0.0297243	0.108318	0.112764	-0.370008	0.297528	0.428878	1.5708	0	0	0.278382	-0.156039	0.253903	0.233015	1.5708	0	0
40.03	-3.10243	1.35969	-1.49585	0.585587	1.33959	1.08902	-0.161912	-0.0238216	-0.0803304	0.380228	-0.248459	0	0	-0.288349	-0.0354895	-0.144193	0.309574	-0.17332	0	0	-0.468737	0.0305817	0.105759	0.112011	-0.370369	0.301965	0.429138	1.5708	0	0	0.272375	-0.161629	0.268641	0.243945	1.5708	0	0
40.04	-3.10422	1.36115	-1.49451	0.585465	1.33982	1.08895	-0.160297	-0.0237118	-0.079508	0.380461	-0.248715	0	0	-0.287158	-0.0352922	-0.142986	0.309248	-0.173109	0	0	-0.467571	0.0310666	0.104253	0.112014	-0.371539	0.307356	0.43062	1.5708	0	0	0.267866	-0.168103	0.290052	0.254022	1.5708	0	0
40.05	-3.08295	1.32876	-1.51176	0.586109	1.33796	1.0909	-0.197857	-0.0249051	-0.0898996	0.374284	-0.248449	0	0	-0.322231	-0.0350618	-0.142136	0.306289	-0.174326	0	0	-0.514588	0.0101483	0.105139	0.114272	-0.365877	0.299818	0.442543	1.5708	0	0	0.222006	-0.199271	0.236887	0.393665	1.5708	0	0
40.06	-3.0836	1.33034	-1.51	0.585815	1.33831	1.09083	-0.197165	-0.0248007	-0.0915622	0.37258	-0.250529	0	0	-0.320758	-0.0351779	-0.140412	0.305982	-0.175258	0	0	-0.51268	0.0114986	0.101324	0.113841	-0.36687	0.303785	0.445577	1.5708	0	0	0.213547	-0.201012	0.224144	0.407599	1.5708	0	0
40.07	-3.08463	1.33289	-1.509	0.585628	1.33858	1.09067	-0.194393	-0.0249454	-0.0911937	0.372969	-0.251321	0	0	-0.317838	-0.035176	-0.140662	0.306733	-0.175547	0	0	-0.509287	0.0126687	0.0983786	0.113548	-0.368754	0.310186	0.449273	1.5708	0	0	0.20449	-0.203577	0.21519	0.423615	1.5708	0	0
40.08	-3.08613	1.33645	-1.50938	0.585621	1.33874	1.09042	-0.189241	-0.0253553	-0.0874565	0.375783	-0.250558	0	0	-0.313859	-0.0346568	-0.142367	0.307597	-0.175494	0	0	-0.504582	0.0135665	0.0962693	0.113972	-0.371654	0.319335	0.453977	1.5708	0	0	0.193773	-0.206297	0.204412	0.443138	1.5708	0	0
40.09	-3.08708	1.34021	-1.50913	0.58552	1.3391	1.09015	-0.184686	-0.0256773	-0.0860324	0.377564	-0.249651	0	0	-0.309907	-0.0343172	-0.142809	0.308012	-0.175404	0	0	-0.496271	0.0148136	0.095329	0.111484	-0.374766	0.327421	0.458512	1.5708	0	0	0.183309	-0.209336	0.199007	0.462361	1.5708	0	0
40.1	-3.08805	1.34549	-1.50646	0.585089	1.33984	1.08978	-0.179906	-0.0258567	-0.0890393	0.377434	-0.249522	0	0	-0.304326	-0.0345128	-0.140987	0.308633	-0.174969	0	0	-0.484707	0.0173892	0.0914951	0.108349	-0.377711	0.336499	0.46341	1.5708	0	0	0.170753	-0.213543	0.195811	0.483502	1.5708	0	0
40.11	-3.09011	1.35155	-1.50397	0.584739	1.34056	1.08938	-0.173928	-0.0260335	-0.0895548	0.377505	-0.249598	0	0	-0.297954	-0.0344728	-0.140236	0.309397	-0.17458	0	0	-0.47215	0.0197903	0.0881141	0.105164	-0.381269	0.344871	0.470713	1.5708	0	0	0.157342	-0.218221	0.19132	0.507224	1.5708	0	0
40.12	-3.08429	1.36991	-1.51	0.584902	1.34184	1.08834	-0.153934	-0.0281143	-0.0853523	0.380036	-0.249076	0	0	-0.278244	-0.031586	-0.134586	0.310087	-0.175402	0	0	-0.453137	0.0128992	0.0940741	0.0941486	-0.380185	0.33317	0.479732	1.5708	0	0	0.148827	-0.224907	0.189991	0.536202	1.5708	0	0
40.13	-3.08821	1.37344	-1.50791	0.584728	1.3422	1.08796	-0.148858	-0.0282331	-0.0820269	0.383808	-0.246143	0	0	-0.274451	-0.0315476	-0.136881	0.311577	-0.17411	0	0	-0.438217	0.0178191	0.0879608	0.0936702	-0.386296	0.348577	0.491122	1.5708	0	0	0.1317	-0.229121	0.176888	0.561041	1.5708	0	0
40.14	-3.09329	1.37796	-1.50409	0.58444	1.34265	1.08759	-0.143494	-0.0280757	-0.0788434	0.385562	-0.244792	0	0	-0.269593	-0.0317871	-0.139271	0.312776	-0.173413	0	0	-0.424022	0.0220879	0.0815507	0.0930391	-0.393522	0.364737	0.507083	1.5708	0	0	0.113158	-0.232974	0.158345	0.590299	1.5708	0	0
40.15	-3.13175	1.37134	-1.46362	0.584134	1.3431	1.08915	-0.20117	-0.0191275	-0.184053	0.221225	-0.377686	0	0	-0.277393	-0.0419465	-0.141891	0.310215	-0.176137	0	0	-0.420006	0.0323188	0.0791109	0.0906694	-0.401562	0.378935	0.52515	1.5708	0	0	0.0987198	-0.234968	0.139772	0.619009	1.5708	0	0
40.16	-3.10148	1.39293	-1.49737	0.583793	1.34407	1.08652	-0.128567	-0.0283307	-0.0754692	0.383184	-0.252905	0	0	-0.253758	-0.0312311	-0.139615	0.314745	-0.172539	0	0	-0.38219	0.0243723	0.0782222	0.080557	-0.406546	0.385013	0.54298	1.5708	0	0	0.0807149	-0.238635	0.126945	0.644452	1.5708	0	0
